<svg version="1.0" preserveAspectRatio="xMidYMid meet" viewBox="0 28.499999316 378 284.99999316000003" zoomAndPan="magnify" xmlns:xlink="http://www.w3.org/1999/xlink" xmlns="http://www.w3.org/2000/svg" style="max-height: 500px" width="378" height="284.99999316000003"><defs><g/><clipPath id="295fc14c7b"><rect height="266" y="0" width="144" x="0"/></clipPath><clipPath id="d59bf3577f"><rect height="219" y="0" width="128" x="0"/></clipPath><clipPath id="1607dfe4ba"><rect height="243" y="0" width="136" x="0"/></clipPath><clipPath id="b2eb9cb401"><path clip-rule="nonzero" d="M 0 193.648438 L 375 193.648438 L 375 237.664062 L 0 237.664062 Z M 0 193.648438"/></clipPath><clipPath id="9cee2cde9f"><path clip-rule="nonzero" d="M 0 0.648438 L 375 0.648438 L 375 44.664062 L 0 44.664062 Z M 0 0.648438"/></clipPath><clipPath id="707e52a6de"><rect height="45" y="0" width="375" x="0"/></clipPath><clipPath id="92703dd256"><path clip-rule="nonzero" d="M 138 107 L 247 107 L 247 173 L 138 173 Z M 138 107"/></clipPath><clipPath id="68fc11089b"><path clip-rule="nonzero" d="M 140.371094 107.710938 L 246.753906 110.144531 L 245.339844 172.03125 L 138.957031 169.59375 Z M 140.371094 107.710938"/></clipPath><clipPath id="469bb21562"><path clip-rule="nonzero" d="M 0.71875 0.519531 L 108.960938 0.519531 L 108.960938 65.078125 L 0.71875 65.078125 Z M 0.71875 0.519531"/></clipPath><clipPath id="c647ccfb83"><path clip-rule="nonzero" d="M 2.371094 0.710938 L 108.753906 3.144531 L 107.339844 65.03125 L 0.957031 62.59375 Z M 2.371094 0.710938"/></clipPath><clipPath id="896f9e700a"><rect height="66" y="0" width="109" x="0"/></clipPath><clipPath id="16d09aa84d"><path clip-rule="nonzero" d="M 262.191406 107.710938 L 375 107.710938 L 375 148.6875 L 262.191406 148.6875 Z M 262.191406 107.710938"/></clipPath><clipPath id="d5102f48b0"><path clip-rule="nonzero" d="M 0.191406 0.710938 L 113 0.710938 L 113 41.6875 L 0.191406 41.6875 Z M 0.191406 0.710938"/></clipPath><clipPath id="a062b8761a"><rect height="42" y="0" width="113" x="0"/></clipPath><clipPath id="1fa82e0baf"><path clip-rule="nonzero" d="M 67.945312 30 L 325 30 L 325 137 L 67.945312 137 Z M 67.945312 30"/></clipPath><clipPath id="d09f7bef23"><path clip-rule="nonzero" d="M 260 119 L 373.945312 119 L 373.945312 142 L 260 142 Z M 260 119"/></clipPath></defs><rect fill-opacity="1" height="449.999989" y="-37.499999" fill="#ffffff" width="450" x="-37.5"/><rect fill-opacity="1" height="449.999989" y="-37.499999" fill="#ffffff" width="450" x="-37.5"/><g transform="matrix(1, 0, 0, 1, 0, 109)"><g clip-path="url(#295fc14c7b)"><g fill-opacity="1" fill="#3f51b5"><g transform="translate(-6.337768, 195.931039)"><g><path d="M 24.921875 0 C 22.972656 -3.238281 20.796875 -8.003906 18.390625 -14.296875 C 15.992188 -20.597656 13.953125 -27.800781 12.265625 -35.90625 C 10.578125 -44.019531 9.734375 -52.296875 9.734375 -60.734375 C 9.734375 -73.328125 11.382812 -86.015625 14.6875 -98.796875 C 18 -111.578125 22.769531 -123.675781 29 -135.09375 C 35.226562 -146.519531 42.691406 -156.707031 51.390625 -165.65625 C 60.085938 -174.613281 69.851562 -181.6875 80.6875 -186.875 C 91.53125 -192.070312 103.179688 -194.671875 115.640625 -194.671875 L 141.71875 -194.671875 C 139.125 -192.078125 137.40625 -188.179688 136.5625 -182.984375 C 135.71875 -177.796875 135.328125 -171.957031 135.390625 -165.46875 C 135.453125 -158.976562 135.484375 -152.488281 135.484375 -146 L 135.484375 -15.375 C 135.484375 -13.300781 135.421875 -11.0625 135.296875 -8.65625 C 135.171875 -6.257812 134.617188 -4.21875 133.640625 -2.53125 C 132.671875 -0.84375 130.953125 0 128.484375 0 C 120.304688 0 112.390625 -1.976562 104.734375 -5.9375 C 97.078125 -9.894531 89.773438 -15.3125 82.828125 -22.1875 C 75.890625 -29.070312 69.46875 -36.796875 63.5625 -45.359375 C 57.65625 -53.921875 52.429688 -62.90625 47.890625 -72.3125 C 43.347656 -81.726562 39.648438 -90.945312 36.796875 -99.96875 C 33.941406 -108.988281 32.054688 -117.328125 31.140625 -124.984375 C 28.160156 -117.585938 25.828125 -109.894531 24.140625 -101.90625 C 22.453125 -93.925781 21.609375 -85.71875 21.609375 -77.28125 C 21.609375 -60.664062 23.296875 -45.609375 26.671875 -32.109375 C 30.046875 -18.617188 35.625 -8.238281 43.40625 -0.96875 L 43.40625 0 Z M 115.4375 -189.8125 C 101.6875 -189.8125 88.675781 -186.109375 76.40625 -178.703125 C 64.144531 -171.304688 53.601562 -161.507812 44.78125 -149.3125 C 42.3125 -136.59375 41.660156 -124.390625 42.828125 -112.703125 C 43.992188 -101.023438 46.523438 -90.125 50.421875 -80 C 54.316406 -69.882812 59.117188 -60.738281 64.828125 -52.5625 C 70.535156 -44.382812 76.632812 -37.375 83.125 -31.53125 C 89.613281 -25.695312 96.066406 -21.222656 102.484375 -18.109375 C 108.910156 -14.992188 114.785156 -13.4375 120.109375 -13.4375 C 121.148438 -13.4375 121.703125 -14.113281 121.765625 -15.46875 C 121.828125 -16.832031 121.859375 -18.035156 121.859375 -19.078125 L 121.859375 -189.8125 Z M 115.4375 -189.8125"/></g></g></g></g></g><g transform="matrix(1, 0, 0, 1, 124, 139)"><g clip-path="url(#d59bf3577f)"><g fill-opacity="1" fill="#3f51b5"><g transform="translate(0.995319, 163.794256)"><g><path d="M 18.625 -116.03125 C 18.625 -124.113281 20.570312 -130.820312 24.46875 -136.15625 C 28.363281 -141.5 33.445312 -145.648438 39.71875 -148.609375 C 46 -151.566406 52.890625 -153.367188 60.390625 -154.015625 C 67.898438 -154.671875 75.332031 -154.273438 82.6875 -152.828125 C 90.050781 -151.390625 96.726562 -149.007812 102.71875 -145.6875 C 108.707031 -142.375 113.21875 -138.191406 116.25 -133.140625 L 116.25 -110.40625 C 110.769531 -121.519531 104.421875 -130.175781 97.203125 -136.375 C 89.984375 -142.582031 82.550781 -146.804688 74.90625 -149.046875 C 67.257812 -151.285156 59.96875 -151.898438 53.03125 -150.890625 C 46.101562 -149.878906 40.117188 -147.640625 35.078125 -144.171875 C 30.890625 -141.429688 28.035156 -137.96875 26.515625 -133.78125 C 25.003906 -129.601562 25.4375 -124.878906 27.8125 -119.609375 C 30.195312 -114.335938 34.992188 -108.742188 42.203125 -102.828125 C 49.421875 -96.910156 59.597656 -90.847656 72.734375 -84.640625 C 80.671875 -81.328125 88.140625 -77.578125 95.140625 -73.390625 C 102.140625 -69.203125 107.835938 -64.148438 112.234375 -58.234375 C 116.640625 -52.316406 118.84375 -45.097656 118.84375 -36.578125 C 118.84375 -30.804688 117.722656 -25.644531 115.484375 -21.09375 C 113.253906 -16.550781 110.191406 -12.695312 106.296875 -9.53125 C 100.085938 -4.757812 92.648438 -1.722656 83.984375 -0.421875 C 75.328125 0.867188 66.269531 0.578125 56.8125 -1.296875 C 47.363281 -3.171875 38.3125 -6.597656 29.65625 -11.578125 C 21 -16.554688 13.640625 -22.941406 7.578125 -30.734375 L 7.578125 -60.828125 C 12.921875 -47.410156 19.628906 -36.226562 27.703125 -27.28125 C 35.785156 -18.332031 44.484375 -11.691406 53.796875 -7.359375 C 63.109375 -3.023438 72.203125 -1.144531 81.078125 -1.71875 C 89.953125 -2.300781 97.78125 -5.476562 104.5625 -11.25 C 108.164062 -14.28125 110.4375 -17.851562 111.375 -21.96875 C 112.3125 -26.082031 111.445312 -30.664062 108.78125 -35.71875 C 106.113281 -40.769531 101.207031 -46.070312 94.0625 -51.625 C 86.914062 -57.1875 77.066406 -62.851562 64.515625 -68.625 C 56.722656 -72.09375 49.328125 -75.914062 42.328125 -80.09375 C 35.328125 -84.28125 29.625 -89.257812 25.21875 -95.03125 C 20.820312 -100.8125 18.625 -107.8125 18.625 -116.03125 Z M 18.625 -116.03125"/></g></g></g></g></g><g transform="matrix(1, 0, 0, 1, 235, 126)"><g clip-path="url(#1607dfe4ba)"><g fill-opacity="1" fill="#3f51b5"><g transform="translate(1.674925, 171.8533)"><g><path d="M 12.28125 -127.859375 C 12.28125 -133.546875 12.304688 -139.226562 12.359375 -144.90625 C 12.421875 -150.59375 12.082031 -155.707031 11.34375 -160.25 C 10.601562 -164.800781 9.09375 -168.210938 6.8125 -170.484375 L 85.921875 -170.484375 C 91.941406 -170.484375 97.796875 -169.546875 103.484375 -167.671875 C 109.171875 -165.796875 113.859375 -162.671875 117.546875 -158.296875 C 121.242188 -153.921875 123.09375 -148.039062 123.09375 -140.65625 C 123.09375 -134.175781 121.5 -127.210938 118.3125 -119.765625 C 115.132812 -112.316406 110.585938 -104.925781 104.671875 -97.59375 C 98.765625 -90.269531 91.71875 -83.535156 83.53125 -77.390625 C 75.351562 -71.253906 66.257812 -66.171875 56.25 -62.140625 C 46.25 -58.109375 35.566406 -55.632812 24.203125 -54.71875 L 24.203125 -42.625 C 24.203125 -36.9375 24.171875 -31.25 24.109375 -25.5625 C 24.054688 -19.882812 24.398438 -14.769531 25.140625 -10.21875 C 25.878906 -5.675781 27.390625 -2.269531 29.671875 0 L 6.8125 0 C 9.09375 -2.269531 10.601562 -5.675781 11.34375 -10.21875 C 12.082031 -14.769531 12.421875 -19.882812 12.359375 -25.5625 C 12.304688 -31.25 12.28125 -36.9375 12.28125 -42.625 Z M 24.203125 -166.734375 L 24.203125 -58.984375 C 36.023438 -60.117188 47.132812 -62.988281 57.53125 -67.59375 C 67.9375 -72.195312 77.085938 -78.078125 84.984375 -85.234375 C 92.878906 -92.398438 99.070312 -100.472656 103.5625 -109.453125 C 108.050781 -118.429688 110.296875 -127.863281 110.296875 -137.75 C 110.296875 -144.226562 109.101562 -149.367188 106.71875 -153.171875 C 104.332031 -156.984375 101.175781 -159.882812 97.25 -161.875 C 93.332031 -163.863281 88.988281 -165.171875 84.21875 -165.796875 C 79.445312 -166.421875 74.675781 -166.734375 69.90625 -166.734375 Z M 24.203125 -166.734375"/></g></g></g></g></g><g clip-path="url(#b2eb9cb401)"><g transform="matrix(1, 0, 0, 1, 0, 193)"><g clip-path="url(#707e52a6de)"><g clip-path="url(#9cee2cde9f)"><path fill-rule="nonzero" fill-opacity="1" d="M -50.101562 0.648438 L 415.15625 0.648438 L 415.15625 44.664062 L -50.101562 44.664062 Z M -50.101562 0.648438" fill="#ffffff"/></g></g></g></g><g fill-opacity="1" fill="#3f51b5"><g transform="translate(55.582541, 219.89707)"><g><path d="M 3.984375 -14.3125 L 3.984375 0 L 2.0625 0 L 2.0625 -14.3125 Z M 3.984375 -14.3125"/></g></g></g><g fill-opacity="1" fill="#3f51b5"><g transform="translate(75.083982, 219.89707)"><g><path d="M 10.515625 -14.3125 L 10.515625 -12.46875 L 6.671875 -12.46875 L 6.671875 0 L 4.75 0 L 4.75 -12.46875 L 1.015625 -12.46875 L 1.015625 -14.3125 Z M 10.515625 -14.3125"/></g></g></g><g fill-opacity="1" fill="#3f51b5"><g transform="translate(100.068058, 219.89707)"><g/></g></g><g fill-opacity="1" fill="#3f51b5"><g transform="translate(119.787222, 219.89707)"><g><path d="M 9.46875 -11.765625 C 8.945312 -12.035156 8.394531 -12.253906 7.8125 -12.421875 C 7.238281 -12.597656 6.691406 -12.6875 6.171875 -12.6875 C 5.398438 -12.6875 4.785156 -12.507812 4.328125 -12.15625 C 3.867188 -11.8125 3.640625 -11.335938 3.640625 -10.734375 C 3.640625 -10.140625 3.90625 -9.648438 4.4375 -9.265625 C 4.976562 -8.890625 5.742188 -8.519531 6.734375 -8.15625 C 7.472656 -7.894531 8.09375 -7.609375 8.59375 -7.296875 C 9.101562 -6.984375 9.523438 -6.550781 9.859375 -6 C 10.203125 -5.457031 10.375 -4.765625 10.375 -3.921875 C 10.375 -3.148438 10.179688 -2.453125 9.796875 -1.828125 C 9.410156 -1.210938 8.863281 -0.726562 8.15625 -0.375 C 7.457031 -0.0195312 6.632812 0.15625 5.6875 0.15625 C 4.800781 0.15625 3.945312 0.015625 3.125 -0.265625 C 2.3125 -0.546875 1.59375 -0.90625 0.96875 -1.34375 L 1.828125 -2.875 C 2.304688 -2.5 2.890625 -2.179688 3.578125 -1.921875 C 4.265625 -1.671875 4.90625 -1.546875 5.5 -1.546875 C 6.269531 -1.546875 6.941406 -1.742188 7.515625 -2.140625 C 8.085938 -2.535156 8.375 -3.125 8.375 -3.90625 C 8.375 -4.5625 8.128906 -5.082031 7.640625 -5.46875 C 7.160156 -5.863281 6.488281 -6.234375 5.625 -6.578125 C 4.820312 -6.878906 4.148438 -7.175781 3.609375 -7.46875 C 3.078125 -7.757812 2.617188 -8.15625 2.234375 -8.65625 C 1.847656 -9.164062 1.65625 -9.804688 1.65625 -10.578125 C 1.65625 -11.691406 2.046875 -12.59375 2.828125 -13.28125 C 3.617188 -13.976562 4.644531 -14.347656 5.90625 -14.390625 C 7.445312 -14.390625 8.878906 -14.007812 10.203125 -13.25 Z M 9.46875 -11.765625"/></g></g></g><g fill-opacity="1" fill="#3f51b5"><g transform="translate(144.771298, 219.89707)"><g><path d="M 11.359375 -14.3125 L 11.359375 -12.46875 L 3.984375 -12.46875 L 3.984375 -8.109375 L 10.578125 -8.109375 L 10.578125 -6.28125 L 3.984375 -6.28125 L 3.984375 -1.859375 L 11.640625 -1.859375 L 11.640625 0 L 2.0625 0 L 2.0625 -14.3125 Z M 11.359375 -14.3125"/></g></g></g><g fill-opacity="1" fill="#3f51b5"><g transform="translate(171.160674, 219.89707)"><g><path d="M 9.9375 0 L 6.578125 -5.28125 C 6.472656 -5.269531 6.3125 -5.265625 6.09375 -5.265625 L 3.984375 -5.265625 L 3.984375 0 L 2.0625 0 L 2.0625 -14.3125 L 5.875 -14.3125 C 6.851562 -14.3125 7.722656 -14.140625 8.484375 -13.796875 C 9.253906 -13.453125 9.859375 -12.945312 10.296875 -12.28125 C 10.734375 -11.613281 10.953125 -10.8125 10.953125 -9.875 C 10.953125 -8.988281 10.753906 -8.175781 10.359375 -7.4375 C 9.972656 -6.695312 9.378906 -6.140625 8.578125 -5.765625 L 12.171875 0 Z M 6.0625 -7.125 C 7.09375 -7.125 7.832031 -7.394531 8.28125 -7.9375 C 8.738281 -8.476562 8.96875 -9.097656 8.96875 -9.796875 C 8.96875 -10.222656 8.867188 -10.640625 8.671875 -11.046875 C 8.484375 -11.453125 8.179688 -11.789062 7.765625 -12.0625 C 7.347656 -12.332031 6.828125 -12.46875 6.203125 -12.46875 L 3.984375 -12.46875 L 3.984375 -7.125 Z M 6.0625 -7.125"/></g></g></g><g fill-opacity="1" fill="#3f51b5"><g transform="translate(197.173803, 219.89707)"><g><path d="M 13.4375 -14.3125 L 7.125 0.671875 L 0.8125 -14.3125 L 3.09375 -14.3125 L 7.203125 -4 L 11.1875 -14.3125 Z M 13.4375 -14.3125"/></g></g></g><g fill-opacity="1" fill="#3f51b5"><g transform="translate(224.86951, 219.89707)"><g><path d="M 3.984375 -14.3125 L 3.984375 0 L 2.0625 0 L 2.0625 -14.3125 Z M 3.984375 -14.3125"/></g></g></g><g fill-opacity="1" fill="#3f51b5"><g transform="translate(244.370951, 219.89707)"><g><path d="M 12.578125 -1.0625 C 12.109375 -0.757812 11.519531 -0.476562 10.8125 -0.21875 C 10.113281 0.03125 9.347656 0.15625 8.515625 0.15625 C 7.046875 0.15625 5.753906 -0.164062 4.640625 -0.8125 C 3.523438 -1.457031 2.664062 -2.328125 2.0625 -3.421875 C 1.46875 -4.515625 1.171875 -5.722656 1.171875 -7.046875 C 1.171875 -8.460938 1.472656 -9.734375 2.078125 -10.859375 C 2.679688 -11.984375 3.519531 -12.863281 4.59375 -13.5 C 5.675781 -14.144531 6.894531 -14.46875 8.25 -14.46875 C 9.0625 -14.46875 9.816406 -14.363281 10.515625 -14.15625 C 11.210938 -13.945312 11.835938 -13.671875 12.390625 -13.328125 L 11.625 -11.515625 C 10.53125 -12.253906 9.425781 -12.625 8.3125 -12.625 C 7.382812 -12.625 6.53125 -12.378906 5.75 -11.890625 C 4.96875 -11.410156 4.34375 -10.75 3.875 -9.90625 C 3.40625 -9.070312 3.171875 -8.148438 3.171875 -7.140625 C 3.171875 -6.117188 3.382812 -5.191406 3.8125 -4.359375 C 4.238281 -3.523438 4.847656 -2.875 5.640625 -2.40625 C 6.441406 -1.9375 7.363281 -1.703125 8.40625 -1.703125 C 9.6875 -1.703125 10.804688 -2.066406 11.765625 -2.796875 Z M 12.578125 -1.0625"/></g></g></g><g fill-opacity="1" fill="#3f51b5"><g transform="translate(271.571839, 219.89707)"><g><path d="M 11.359375 -14.3125 L 11.359375 -12.46875 L 3.984375 -12.46875 L 3.984375 -8.109375 L 10.578125 -8.109375 L 10.578125 -6.28125 L 3.984375 -6.28125 L 3.984375 -1.859375 L 11.640625 -1.859375 L 11.640625 0 L 2.0625 0 L 2.0625 -14.3125 Z M 11.359375 -14.3125"/></g></g></g><g fill-opacity="1" fill="#3f51b5"><g transform="translate(297.961203, 219.89707)"><g><path d="M 9.46875 -11.765625 C 8.945312 -12.035156 8.394531 -12.253906 7.8125 -12.421875 C 7.238281 -12.597656 6.691406 -12.6875 6.171875 -12.6875 C 5.398438 -12.6875 4.785156 -12.507812 4.328125 -12.15625 C 3.867188 -11.8125 3.640625 -11.335938 3.640625 -10.734375 C 3.640625 -10.140625 3.90625 -9.648438 4.4375 -9.265625 C 4.976562 -8.890625 5.742188 -8.519531 6.734375 -8.15625 C 7.472656 -7.894531 8.09375 -7.609375 8.59375 -7.296875 C 9.101562 -6.984375 9.523438 -6.550781 9.859375 -6 C 10.203125 -5.457031 10.375 -4.765625 10.375 -3.921875 C 10.375 -3.148438 10.179688 -2.453125 9.796875 -1.828125 C 9.410156 -1.210938 8.863281 -0.726562 8.15625 -0.375 C 7.457031 -0.0195312 6.632812 0.15625 5.6875 0.15625 C 4.800781 0.15625 3.945312 0.015625 3.125 -0.265625 C 2.3125 -0.546875 1.59375 -0.90625 0.96875 -1.34375 L 1.828125 -2.875 C 2.304688 -2.5 2.890625 -2.179688 3.578125 -1.921875 C 4.265625 -1.671875 4.90625 -1.546875 5.5 -1.546875 C 6.269531 -1.546875 6.941406 -1.742188 7.515625 -2.140625 C 8.085938 -2.535156 8.375 -3.125 8.375 -3.90625 C 8.375 -4.5625 8.128906 -5.082031 7.640625 -5.46875 C 7.160156 -5.863281 6.488281 -6.234375 5.625 -6.578125 C 4.820312 -6.878906 4.148438 -7.175781 3.609375 -7.46875 C 3.078125 -7.757812 2.617188 -8.15625 2.234375 -8.65625 C 1.847656 -9.164062 1.65625 -9.804688 1.65625 -10.578125 C 1.65625 -11.691406 2.046875 -12.59375 2.828125 -13.28125 C 3.617188 -13.976562 4.644531 -14.347656 5.90625 -14.390625 C 7.445312 -14.390625 8.878906 -14.007812 10.203125 -13.25 Z M 9.46875 -11.765625"/></g></g></g><g clip-path="url(#92703dd256)"><g clip-path="url(#68fc11089b)"><g transform="matrix(1, 0, 0, 1, 138, 107)"><g clip-path="url(#896f9e700a)"><g clip-path="url(#469bb21562)"><g clip-path="url(#c647ccfb83)"><path fill-rule="nonzero" fill-opacity="1" d="M 2.371094 0.710938 L 108.738281 3.144531 L 107.320312 65.03125 L 0.957031 62.59375 Z M 2.371094 0.710938" fill="#ffffff"/></g></g></g></g></g></g><g clip-path="url(#16d09aa84d)"><g transform="matrix(1, 0, 0, 1, 262, 107)"><g clip-path="url(#a062b8761a)"><g clip-path="url(#d5102f48b0)"><path fill-rule="nonzero" fill-opacity="1" d="M 0.191406 0.710938 L 160.429688 0.710938 L 160.429688 41.6875 L 0.191406 41.6875 Z M 0.191406 0.710938" fill="#ffffff"/></g></g></g></g><g clip-path="url(#1fa82e0baf)"><path fill-rule="nonzero" fill-opacity="1" d="M 307.660156 51.648438 C 300.292969 54.171875 292.417969 54.605469 284.652344 55.023438 C 286.394531 56.585938 288.609375 57.617188 290.914062 57.980469 C 287.085938 59.199219 283.074219 59.886719 279.066406 59.976562 C 284.074219 63.152344 290.441406 63.5 296.230469 62.226562 C 302.019531 60.957031 307.351562 58.199219 312.597656 55.476562 C 304.539062 66.4375 288.628906 70.792969 276.105469 65.457031 C 279.664062 69.339844 284.726562 71.84375 289.988281 72.296875 C 282.09375 72.714844 274.109375 71.535156 266.671875 68.851562 C 270.519531 74.167969 276.816406 77.613281 283.347656 77.996094 C 281.167969 77.871094 278.902344 78.359375 276.6875 78.269531 C 274.472656 78.160156 272.261719 77.871094 270.082031 77.398438 C 266.453125 76.597656 261.574219 75.402344 258.777344 72.789062 C 261.066406 76.472656 265.238281 78.941406 269.574219 79.15625 C 265.472656 80.136719 261.15625 80.265625 257 79.539062 C 256.875 80.9375 255.222656 81.988281 253.898438 81.480469 C 252.609375 82.625 250.832031 83.167969 249.125 82.914062 C 251.449219 84.074219 254.113281 84.402344 256.691406 84.273438 C 259.285156 84.148438 261.828125 83.566406 264.347656 82.984375 C 258.796875 85.746094 252.390625 86.722656 246.257812 85.78125 C 249.6875 87.847656 254.007812 87.777344 257.925781 87.015625 C 261.863281 86.253906 265.65625 84.855469 269.648438 84.417969 C 265.691406 86.996094 261.136719 88.628906 256.472656 89.28125 C 254.167969 89.589844 251.847656 89.683594 249.523438 89.5 C 247.273438 89.335938 245.007812 88.484375 242.792969 88.558594 C 243.171875 89.226562 244.769531 90.96875 243.246094 91.386719 C 242.683594 91.53125 242.101562 91.277344 241.578125 91.042969 C 241.59375 91.730469 241.59375 92.457031 241.269531 93.074219 C 240.960938 93.691406 240.214844 94.164062 239.5625 93.929688 C 239.707031 94.671875 239.054688 95.46875 238.292969 95.488281 C 237.929688 95.488281 237.511719 95.34375 237.203125 95.542969 C 236.914062 95.707031 236.824219 96.085938 236.675781 96.378906 C 236.367188 96.996094 235.734375 97.394531 235.0625 97.574219 C 233.484375 97.992188 232.722656 97.628906 231.8125 99.28125 C 230.6875 101.367188 230.796875 103.980469 229.328125 105.902344 C 228.640625 106.792969 228.132812 107.464844 227.550781 108.40625 C 226.878906 109.460938 225.699219 110.222656 224.464844 110.402344 C 223.976562 110.476562 223.414062 110.496094 223.105469 110.894531 C 222.742188 111.347656 222.90625 112.109375 222.453125 112.453125 C 221.90625 112.871094 221.074219 112.289062 220.472656 112.617188 C 220.019531 112.871094 219.964844 113.46875 219.710938 113.90625 C 219.347656 114.558594 218.566406 114.867188 217.859375 115.121094 C 215.683594 115.882812 214.304688 117.335938 211.765625 117.28125 C 222.398438 121.019531 234.117188 121.617188 245.078125 118.96875 C 237.058594 126.390625 227.421875 132.234375 216.808594 134.792969 C 209.640625 136.515625 202.054688 136.695312 194.871094 135.027344 C 191.367188 134.210938 187.957031 132.902344 184.746094 131.34375 C 181.261719 129.65625 178.214844 127.261719 174.421875 126.246094 C 169.992188 125.066406 165.675781 124.449219 161.101562 124.230469 C 156.910156 124.011719 152.992188 126.515625 148.800781 125.898438 C 148 125.789062 147.203125 125.535156 146.386719 125.628906 C 145.0625 125.773438 143.644531 126.316406 142.519531 127.023438 C 141.90625 127.40625 141.34375 127.839844 140.832031 128.347656 C 140.5625 128.621094 139.582031 129.457031 139.582031 129.875 C 139.601562 128.058594 140.234375 126.261719 141.304688 124.792969 C 142.429688 123.269531 143.808594 122.398438 145.550781 121.800781 C 145.605469 121.78125 145.371094 119.476562 145.40625 119.203125 C 145.550781 118.207031 146.003906 117.226562 146.714844 116.5 C 147.710938 115.503906 149.109375 114.996094 150.46875 114.632812 C 151.667969 114.324219 152.882812 114.105469 154.0625 113.742188 C 155.242188 113.378906 156.382812 112.835938 157.273438 111.980469 C 156.875 113.414062 155.476562 114.359375 154.078125 114.832031 C 152.664062 115.304688 151.160156 115.410156 149.742188 115.882812 C 148.347656 116.335938 146.984375 117.246094 146.53125 118.625 C 146.820312 117.84375 147.984375 117.0625 148.636719 116.683594 C 149.527344 116.15625 150.722656 116.027344 151.738281 115.992188 C 155.421875 115.828125 158.925781 117.625 162.625 117.316406 C 162.917969 117.300781 163.207031 117.261719 163.496094 117.207031 C 168.050781 116.375 160.539062 112.21875 159.324219 111.675781 C 157.636719 110.910156 155.914062 110.929688 154.171875 110.457031 C 150.125 109.351562 146.132812 107.992188 142.339844 106.175781 C 138.710938 104.453125 135.246094 102.273438 132.488281 99.371094 C 129.945312 96.6875 128.078125 93.457031 125.917969 90.460938 C 123.757812 87.46875 121.183594 84.601562 117.789062 83.132812 C 119.566406 83.332031 121.292969 84.109375 122.617188 85.328125 C 119.421875 79.628906 114.214844 75.09375 108.136719 72.714844 C 111.167969 71.789062 113.632812 73.476562 116.445312 74.457031 C 112.363281 70.554688 108.246094 66.636719 103.492188 63.605469 C 98.738281 60.558594 93.257812 58.417969 87.613281 58.433594 C 89.863281 57.691406 92.277344 57.457031 94.617188 57.765625 C 86.214844 51.46875 77.6875 45.082031 67.945312 41.125 C 73.585938 39.5625 79.71875 41.289062 84.65625 44.410156 C 89.589844 47.53125 93.566406 51.941406 97.464844 56.292969 C 94.398438 48.148438 87.59375 41.507812 79.394531 38.621094 C 84.472656 36.734375 90.171875 39.671875 93.855469 43.648438 C 97.539062 47.621094 99.988281 52.59375 103.691406 56.566406 C 102.421875 53.480469 101.132812 50.414062 99.863281 47.332031 C 102.457031 49.996094 104.453125 53.246094 105.667969 56.765625 C 105.722656 49.398438 101.65625 42.121094 95.34375 38.3125 C 104.777344 40.6875 112.21875 49.472656 113.015625 59.160156 C 114.957031 50.976562 111.820312 41.796875 105.25 36.515625 C 110.023438 38.402344 114.648438 41.179688 117.589844 45.390625 C 121.707031 51.269531 121.960938 58.945312 122.070312 66.109375 C 122.417969 64.023438 122.761719 61.9375 123.105469 59.867188 C 124.667969 62.082031 125.699219 64.675781 126.046875 67.363281 C 126.609375 62.136719 125.644531 56.746094 123.304688 52.046875 C 126.699219 56.585938 128.640625 62.191406 128.785156 67.851562 C 130.871094 60.359375 129.730469 52.011719 125.71875 45.351562 C 130.691406 49.398438 133.285156 55.640625 135.0625 61.792969 C 136.824219 67.945312 137.984375 74.367188 140.886719 80.066406 C 139.980469 72.515625 138.367188 65.039062 136.097656 57.78125 C 139.707031 60.886719 141.523438 65.601562 142.59375 70.25 C 143.992188 76.289062 143.683594 81.84375 148.328125 86.453125 C 146.511719 83.476562 147.074219 79.628906 148.09375 76.289062 C 149.109375 72.953125 150.503906 69.578125 150.140625 66.09375 C 151.628906 67.417969 151.902344 69.6875 151.539062 71.644531 C 151.175781 73.605469 150.324219 75.457031 149.925781 77.398438 C 149.21875 80.972656 150.195312 84.875 152.539062 87.667969 C 152.5 81.515625 154.097656 75.347656 157.128906 69.976562 C 156.566406 73.515625 156.019531 77.105469 156.402344 80.664062 C 156.785156 84.21875 158.234375 87.8125 161.046875 90.027344 C 160.828125 87.886719 160.59375 85.726562 160.375 83.585938 C 161.847656 87.867188 165.039062 91.53125 169.085938 93.546875 C 168.398438 91.984375 167.996094 90.28125 167.925781 88.574219 C 170.699219 92.785156 174.855469 96.085938 179.59375 97.847656 C 179.210938 97.085938 178.828125 96.339844 178.449219 95.578125 C 180.644531 97.085938 182.511719 98.992188 184.671875 100.550781 C 186.90625 102.164062 188.882812 104.144531 190.496094 106.394531 C 191.351562 107.574219 192.3125 108.953125 193.746094 109.007812 C 195.089844 109.078125 196.160156 107.972656 197.03125 106.972656 C 199.96875 103.582031 202.925781 100.1875 205.359375 96.414062 C 206.539062 94.597656 207.390625 92.640625 208.441406 90.769531 C 209.660156 88.59375 211.109375 86.507812 212.417969 84.402344 C 219.566406 73.023438 228.476562 62.734375 238.765625 54.082031 C 238.691406 55.460938 238.636719 56.820312 238.566406 58.199219 C 243.519531 55.730469 247.820312 51.957031 250.886719 47.347656 C 251.757812 48.820312 251.792969 50.777344 250.941406 52.265625 C 264.820312 46.023438 278.175781 38.566406 290.785156 30.039062 C 289.171875 40.636719 278.738281 49.089844 268.070312 48.566406 C 280.460938 49.34375 293.109375 44.027344 301.203125 34.59375 C 298.0625 44.265625 288.027344 51.230469 277.867188 50.777344 C 285.433594 51.449219 293.054688 49.273438 299.824219 45.824219 C 306.609375 42.375 312.671875 37.695312 318.675781 33.050781 C 311.78125 43.230469 300.640625 50.433594 288.535156 52.554688 C 301.746094 50.6875 314.429688 45.28125 324.9375 37.058594 C 321.90625 44.171875 315.027344 49.109375 307.660156 51.648438 Z M 307.660156 51.648438" fill="#00897b"/></g><path fill-rule="nonzero" fill-opacity="1" d="M 258.144531 123.847656 C 266.871094 125.464844 274.691406 130.164062 281.949219 135.246094 C 289.226562 140.324219 296.210938 145.914062 304.234375 149.726562 C 322.59375 158.453125 345.1875 156.601562 362.769531 146.386719 C 348.125 150.449219 332.304688 151.050781 317.839844 146.386719 C 307.734375 143.121094 298.605469 137.441406 289.261719 132.359375 C 279.917969 127.277344 269.992188 122.6875 259.394531 121.90625 C 252.425781 121.398438 244.878906 122.761719 238.925781 126.554688 C 245.167969 123.847656 251.339844 122.597656 258.144531 123.847656 Z M 258.144531 123.847656" fill="#00897b"/><path fill-rule="nonzero" fill-opacity="1" d="M 279.898438 106.957031 C 287.757812 107.066406 295.269531 109.933594 302.816406 112.128906 C 310.367188 114.324219 318.550781 115.847656 325.988281 113.324219 C 324.066406 116.410156 320.582031 118.261719 317.042969 119.058594 C 309.820312 120.675781 302.328125 118.476562 295.378906 115.917969 C 288.429688 113.363281 281.386719 110.386719 273.984375 110.421875 C 262.644531 110.476562 252.71875 117.390625 241.46875 117.933594 C 246.238281 117.335938 251.121094 114.792969 255.566406 113.035156 C 260.574219 111.058594 265.621094 109.078125 270.898438 107.9375 C 273.875 107.28125 276.886719 106.917969 279.898438 106.957031 Z M 279.898438 106.957031" fill="#00897b"/><path fill-rule="nonzero" fill-opacity="1" d="M 276.597656 115.339844 C 286.503906 116.699219 295.957031 120.257812 305.683594 122.578125 C 314.828125 124.773438 324.300781 125.882812 333.644531 124.773438 C 342.972656 123.667969 352.171875 120.257812 359.304688 114.140625 C 358.976562 118.53125 355.347656 121.945312 351.539062 124.140625 C 341.25 130.089844 328.566406 130.382812 316.863281 128.296875 C 305.15625 126.207031 293.945312 122 282.332031 119.457031 C 271.625 117.117188 259.777344 116.082031 249.304688 120.019531 C 253.714844 118.207031 257.382812 116.066406 262.207031 115.304688 C 266.960938 114.59375 271.824219 114.6875 276.597656 115.339844 Z M 276.597656 115.339844" fill="#00897b"/><g clip-path="url(#d09f7bef23)"><path fill-rule="nonzero" fill-opacity="1" d="M 305.101562 128.296875 C 316.589844 131.796875 328.730469 134.300781 340.578125 134.230469 C 352.609375 134.175781 364.945312 130.980469 374.238281 123.339844 C 372.695312 127.859375 369.464844 131.6875 365.5625 134.464844 C 361.664062 137.222656 357.125 138.984375 352.5 140.160156 C 343.480469 142.449219 333.917969 142.574219 324.84375 140.523438 C 313.957031 138.074219 304.03125 132.632812 293.890625 128.039062 C 288.574219 125.628906 283.109375 123.433594 277.433594 122.015625 C 274.582031 121.308594 271.699219 120.78125 268.777344 120.527344 C 266.035156 120.292969 263.640625 119.839844 260.882812 120.621094 C 268.484375 118.023438 276.886719 119.167969 284.597656 121.417969 C 289.042969 122.722656 293.382812 124.375 297.753906 125.898438 C 300.167969 126.734375 302.617188 127.53125 305.101562 128.296875 Z M 305.101562 128.296875" fill="#00897b"/></g></svg>